<?xml version="1.0" standalone="no"?>
<!DOCTYPE svg PUBLIC "-//W3C//DTD SVG 20010904//EN"
 "http://www.w3.org/TR/2001/REC-SVG-20010904/DTD/svg10.dtd">
<svg version="1.0" xmlns="http://www.w3.org/2000/svg"
 width="321.000000pt" height="321.000000pt" viewBox="0 0 321.000000 321.000000"
 preserveAspectRatio="xMidYMid meet">

<g transform="translate(0.000000,321.000000) scale(0.100000,-0.100000)"
fill="#000000" stroke="none">
<path d="M1345 3181 c-127 -24 -205 -44 -304 -81 -372 -137 -694 -427 -867
-781 -118 -239 -167 -454 -167 -719 1 -149 13 -247 48 -390 126 -501 505 -924
987 -1100 485 -178 1020 -115 1444 168 599 402 855 1147 628 1831 -180 544
-626 938 -1199 1061 -144 32 -431 37 -570 11z m348 -525 c108 -25 187 -102
206 -199 5 -29 12 -175 15 -326 2 -150 7 -275 9 -278 3 -2 47 1 98 6 52 6 164
14 249 17 147 6 158 6 208 -16 174 -75 215 -288 83 -433 -50 -55 -107 -75
-247 -87 -71 -6 -172 -15 -224 -20 -52 -5 -108 -10 -124 -10 l-29 0 7 -132 c3
-73 7 -197 7 -276 1 -126 -2 -147 -21 -187 -49 -101 -139 -158 -250 -158 -76
0 -122 17 -178 67 -75 68 -83 104 -89 387 -6 244 -6 249 -27 249 -12 0 -109
-7 -216 -15 -107 -9 -244 -17 -305 -18 -105 -2 -112 -1 -164 28 -194 108 -183
385 19 474 33 14 86 22 200 30 164 12 334 27 413 37 l47 6 -7 318 c-7 363 -5
376 71 458 44 48 76 68 133 81 52 12 51 12 116 -3z"/>
</g>
</svg>
