<?xml version="1.0" standalone="no"?>
<!DOCTYPE svg PUBLIC "-//W3C//DTD SVG 20010904//EN"
 "http://www.w3.org/TR/2001/REC-SVG-20010904/DTD/svg10.dtd">
<svg version="1.0" xmlns="http://www.w3.org/2000/svg"
 width="321.000000pt" height="321.000000pt" viewBox="0 0 321.000000 321.000000"
 preserveAspectRatio="xMidYMid meet">

<g transform="translate(0.000000,321.000000) scale(0.100000,-0.100000)"
fill="#000000" stroke="none">
<path d="M1510 3204 c-406 -31 -737 -177 -1019 -448 -443 -427 -601 -1074
-405 -1653 198 -586 698 -998 1309 -1078 455 -59 917 81 1259 383 486 429 666
1099 459 1712 -189 564 -699 989 -1283 1069 -88 12 -256 20 -320 15z m855
-1295 c167 -78 222 -308 107 -444 -79 -94 -137 -110 -447 -124 -132 -6 -432
-23 -666 -37 -489 -30 -496 -30 -582 46 -66 59 -99 131 -100 222 -1 88 21 144
80 204 81 82 97 85 603 114 899 53 931 53 1005 19z"/>
</g>
</svg>
